<?xml version="1.0" encoding="utf-8" standalone="no"?>
<!DOCTYPE svg PUBLIC "-//W3C//DTD SVG 1.1//EN"
  "http://www.w3.org/Graphics/SVG/1.1/DTD/svg11.dtd">
<svg xmlns:xlink="http://www.w3.org/1999/xlink" width="720pt" height="432pt" viewBox="0 0 720 432" xmlns="http://www.w3.org/2000/svg" version="1.1">
 <metadata>
  <rdf:RDF xmlns:dc="http://purl.org/dc/elements/1.1/" xmlns:cc="http://creativecommons.org/ns#" xmlns:rdf="http://www.w3.org/1999/02/22-rdf-syntax-ns#">
   <cc:Work>
    <dc:type rdf:resource="http://purl.org/dc/dcmitype/StillImage"/>
    <dc:date>2026-05-17T23:13:38.444367</dc:date>
    <dc:format>image/svg+xml</dc:format>
    <dc:creator>
     <cc:Agent>
      <dc:title>Matplotlib v3.10.8, https://matplotlib.org/</dc:title>
     </cc:Agent>
    </dc:creator>
   </cc:Work>
  </rdf:RDF>
 </metadata>
 <defs>
  <style type="text/css">*{stroke-linejoin: round; stroke-linecap: butt}</style>
 </defs>
 <g id="figure_1">
  <g id="patch_1">
   <path d="M 0 432 
L 720 432 
L 720 0 
L 0 0 
z
" style="fill: #ffffff"/>
  </g>
  <g id="axes_1">
   <g id="patch_2">
    <path d="M 51.558 377.724 
L 709.632 377.724 
L 709.632 10.368 
L 51.558 10.368 
z
" style="fill: #ffffff"/>
   </g>
   <g id="matplotlib.axis_1">
    <g id="xtick_1">
     <g id="line2d_1">
      <path d="M 70.974856 377.724 
L 70.974856 10.368 
" clip-path="url(#pad4bfa704d)" style="fill: none; stroke: #cccccc; stroke-opacity: 0.3; stroke-width: 0.8; stroke-linecap: round"/>
     </g>
     <g id="text_1">
      <!-- 0.00 -->
      <g style="fill: #262626" transform="translate(57.615481 395.142125) scale(0.12 -0.12)">
       <defs>
        <path id="DejaVuSans-30" d="M 2034 4250 
Q 1547 4250 1301 3770 
Q 1056 3291 1056 2328 
Q 1056 1369 1301 889 
Q 1547 409 2034 409 
Q 2525 409 2770 889 
Q 3016 1369 3016 2328 
Q 3016 3291 2770 3770 
Q 2525 4250 2034 4250 
z
M 2034 4750 
Q 2819 4750 3233 4129 
Q 3647 3509 3647 2328 
Q 3647 1150 3233 529 
Q 2819 -91 2034 -91 
Q 1250 -91 836 529 
Q 422 1150 422 2328 
Q 422 3509 836 4129 
Q 1250 4750 2034 4750 
z
" transform="scale(0.015625)"/>
        <path id="DejaVuSans-2e" d="M 684 794 
L 1344 794 
L 1344 0 
L 684 0 
L 684 794 
z
" transform="scale(0.015625)"/>
       </defs>
       <use xlink:href="#DejaVuSans-30"/>
       <use xlink:href="#DejaVuSans-2e" transform="translate(63.623047 0)"/>
       <use xlink:href="#DejaVuSans-30" transform="translate(95.410156 0)"/>
       <use xlink:href="#DejaVuSans-30" transform="translate(159.033203 0)"/>
      </g>
     </g>
    </g>
    <g id="xtick_2">
     <g id="line2d_2">
      <path d="M 146.423665 377.724 
L 146.423665 10.368 
" clip-path="url(#pad4bfa704d)" style="fill: none; stroke: #cccccc; stroke-opacity: 0.3; stroke-width: 0.8; stroke-linecap: round"/>
     </g>
     <g id="text_2">
      <!-- 0.25 -->
      <g style="fill: #262626" transform="translate(133.06429 395.142125) scale(0.12 -0.12)">
       <defs>
        <path id="DejaVuSans-32" d="M 1228 531 
L 3431 531 
L 3431 0 
L 469 0 
L 469 531 
Q 828 903 1448 1529 
Q 2069 2156 2228 2338 
Q 2531 2678 2651 2914 
Q 2772 3150 2772 3378 
Q 2772 3750 2511 3984 
Q 2250 4219 1831 4219 
Q 1534 4219 1204 4116 
Q 875 4013 500 3803 
L 500 4441 
Q 881 4594 1212 4672 
Q 1544 4750 1819 4750 
Q 2544 4750 2975 4387 
Q 3406 4025 3406 3419 
Q 3406 3131 3298 2873 
Q 3191 2616 2906 2266 
Q 2828 2175 2409 1742 
Q 1991 1309 1228 531 
z
" transform="scale(0.015625)"/>
        <path id="DejaVuSans-35" d="M 691 4666 
L 3169 4666 
L 3169 4134 
L 1269 4134 
L 1269 2991 
Q 1406 3038 1543 3061 
Q 1681 3084 1819 3084 
Q 2600 3084 3056 2656 
Q 3513 2228 3513 1497 
Q 3513 744 3044 326 
Q 2575 -91 1722 -91 
Q 1428 -91 1123 -41 
Q 819 9 494 109 
L 494 744 
Q 775 591 1075 516 
Q 1375 441 1709 441 
Q 2250 441 2565 725 
Q 2881 1009 2881 1497 
Q 2881 1984 2565 2268 
Q 2250 2553 1709 2553 
Q 1456 2553 1204 2497 
Q 953 2441 691 2322 
L 691 4666 
z
" transform="scale(0.015625)"/>
       </defs>
       <use xlink:href="#DejaVuSans-30"/>
       <use xlink:href="#DejaVuSans-2e" transform="translate(63.623047 0)"/>
       <use xlink:href="#DejaVuSans-32" transform="translate(95.410156 0)"/>
       <use xlink:href="#DejaVuSans-35" transform="translate(159.033203 0)"/>
      </g>
     </g>
    </g>
    <g id="xtick_3">
     <g id="line2d_3">
      <path d="M 221.872474 377.724 
L 221.872474 10.368 
" clip-path="url(#pad4bfa704d)" style="fill: none; stroke: #cccccc; stroke-opacity: 0.3; stroke-width: 0.8; stroke-linecap: round"/>
     </g>
     <g id="text_3">
      <!-- 0.50 -->
      <g style="fill: #262626" transform="translate(208.513099 395.142125) scale(0.12 -0.12)">
       <use xlink:href="#DejaVuSans-30"/>
       <use xlink:href="#DejaVuSans-2e" transform="translate(63.623047 0)"/>
       <use xlink:href="#DejaVuSans-35" transform="translate(95.410156 0)"/>
       <use xlink:href="#DejaVuSans-30" transform="translate(159.033203 0)"/>
      </g>
     </g>
    </g>
    <g id="xtick_4">
     <g id="line2d_4">
      <path d="M 297.321283 377.724 
L 297.321283 10.368 
" clip-path="url(#pad4bfa704d)" style="fill: none; stroke: #cccccc; stroke-opacity: 0.3; stroke-width: 0.8; stroke-linecap: round"/>
     </g>
     <g id="text_4">
      <!-- 0.75 -->
      <g style="fill: #262626" transform="translate(283.961908 395.142125) scale(0.12 -0.12)">
       <defs>
        <path id="DejaVuSans-37" d="M 525 4666 
L 3525 4666 
L 3525 4397 
L 1831 0 
L 1172 0 
L 2766 4134 
L 525 4134 
L 525 4666 
z
" transform="scale(0.015625)"/>
       </defs>
       <use xlink:href="#DejaVuSans-30"/>
       <use xlink:href="#DejaVuSans-2e" transform="translate(63.623047 0)"/>
       <use xlink:href="#DejaVuSans-37" transform="translate(95.410156 0)"/>
       <use xlink:href="#DejaVuSans-35" transform="translate(159.033203 0)"/>
      </g>
     </g>
    </g>
    <g id="xtick_5">
     <g id="line2d_5">
      <path d="M 372.770092 377.724 
L 372.770092 10.368 
" clip-path="url(#pad4bfa704d)" style="fill: none; stroke: #cccccc; stroke-opacity: 0.3; stroke-width: 0.8; stroke-linecap: round"/>
     </g>
     <g id="text_5">
      <!-- 1.00 -->
      <g style="fill: #262626" transform="translate(359.410717 395.142125) scale(0.12 -0.12)">
       <defs>
        <path id="DejaVuSans-31" d="M 794 531 
L 1825 531 
L 1825 4091 
L 703 3866 
L 703 4441 
L 1819 4666 
L 2450 4666 
L 2450 531 
L 3481 531 
L 3481 0 
L 794 0 
L 794 531 
z
" transform="scale(0.015625)"/>
       </defs>
       <use xlink:href="#DejaVuSans-31"/>
       <use xlink:href="#DejaVuSans-2e" transform="translate(63.623047 0)"/>
       <use xlink:href="#DejaVuSans-30" transform="translate(95.410156 0)"/>
       <use xlink:href="#DejaVuSans-30" transform="translate(159.033203 0)"/>
      </g>
     </g>
    </g>
    <g id="xtick_6">
     <g id="line2d_6">
      <path d="M 448.218901 377.724 
L 448.218901 10.368 
" clip-path="url(#pad4bfa704d)" style="fill: none; stroke: #cccccc; stroke-opacity: 0.3; stroke-width: 0.8; stroke-linecap: round"/>
     </g>
     <g id="text_6">
      <!-- 1.25 -->
      <g style="fill: #262626" transform="translate(434.859526 395.142125) scale(0.12 -0.12)">
       <use xlink:href="#DejaVuSans-31"/>
       <use xlink:href="#DejaVuSans-2e" transform="translate(63.623047 0)"/>
       <use xlink:href="#DejaVuSans-32" transform="translate(95.410156 0)"/>
       <use xlink:href="#DejaVuSans-35" transform="translate(159.033203 0)"/>
      </g>
     </g>
    </g>
    <g id="xtick_7">
     <g id="line2d_7">
      <path d="M 523.667709 377.724 
L 523.667709 10.368 
" clip-path="url(#pad4bfa704d)" style="fill: none; stroke: #cccccc; stroke-opacity: 0.3; stroke-width: 0.8; stroke-linecap: round"/>
     </g>
     <g id="text_7">
      <!-- 1.50 -->
      <g style="fill: #262626" transform="translate(510.308334 395.142125) scale(0.12 -0.12)">
       <use xlink:href="#DejaVuSans-31"/>
       <use xlink:href="#DejaVuSans-2e" transform="translate(63.623047 0)"/>
       <use xlink:href="#DejaVuSans-35" transform="translate(95.410156 0)"/>
       <use xlink:href="#DejaVuSans-30" transform="translate(159.033203 0)"/>
      </g>
     </g>
    </g>
    <g id="xtick_8">
     <g id="line2d_8">
      <path d="M 599.116518 377.724 
L 599.116518 10.368 
" clip-path="url(#pad4bfa704d)" style="fill: none; stroke: #cccccc; stroke-opacity: 0.3; stroke-width: 0.8; stroke-linecap: round"/>
     </g>
     <g id="text_8">
      <!-- 1.75 -->
      <g style="fill: #262626" transform="translate(585.757143 395.142125) scale(0.12 -0.12)">
       <use xlink:href="#DejaVuSans-31"/>
       <use xlink:href="#DejaVuSans-2e" transform="translate(63.623047 0)"/>
       <use xlink:href="#DejaVuSans-37" transform="translate(95.410156 0)"/>
       <use xlink:href="#DejaVuSans-35" transform="translate(159.033203 0)"/>
      </g>
     </g>
    </g>
    <g id="xtick_9">
     <g id="line2d_9">
      <path d="M 674.565327 377.724 
L 674.565327 10.368 
" clip-path="url(#pad4bfa704d)" style="fill: none; stroke: #cccccc; stroke-opacity: 0.3; stroke-width: 0.8; stroke-linecap: round"/>
     </g>
     <g id="text_9">
      <!-- 2.00 -->
      <g style="fill: #262626" transform="translate(661.205952 395.142125) scale(0.12 -0.12)">
       <use xlink:href="#DejaVuSans-32"/>
       <use xlink:href="#DejaVuSans-2e" transform="translate(63.623047 0)"/>
       <use xlink:href="#DejaVuSans-30" transform="translate(95.410156 0)"/>
       <use xlink:href="#DejaVuSans-30" transform="translate(159.033203 0)"/>
      </g>
     </g>
    </g>
    <g id="text_10">
     <!-- Environment Steps ($\times 10^9$) -->
     <g style="fill: #262626" transform="translate(288.055 414.37775) scale(0.14 -0.14)">
      <defs>
       <path id="DejaVuSans-45" d="M 628 4666 
L 3578 4666 
L 3578 4134 
L 1259 4134 
L 1259 2753 
L 3481 2753 
L 3481 2222 
L 1259 2222 
L 1259 531 
L 3634 531 
L 3634 0 
L 628 0 
L 628 4666 
z
" transform="scale(0.015625)"/>
       <path id="DejaVuSans-6e" d="M 3513 2113 
L 3513 0 
L 2938 0 
L 2938 2094 
Q 2938 2591 2744 2837 
Q 2550 3084 2163 3084 
Q 1697 3084 1428 2787 
Q 1159 2491 1159 1978 
L 1159 0 
L 581 0 
L 581 3500 
L 1159 3500 
L 1159 2956 
Q 1366 3272 1645 3428 
Q 1925 3584 2291 3584 
Q 2894 3584 3203 3211 
Q 3513 2838 3513 2113 
z
" transform="scale(0.015625)"/>
       <path id="DejaVuSans-76" d="M 191 3500 
L 800 3500 
L 1894 563 
L 2988 3500 
L 3597 3500 
L 2284 0 
L 1503 0 
L 191 3500 
z
" transform="scale(0.015625)"/>
       <path id="DejaVuSans-69" d="M 603 3500 
L 1178 3500 
L 1178 0 
L 603 0 
L 603 3500 
z
M 603 4863 
L 1178 4863 
L 1178 4134 
L 603 4134 
L 603 4863 
z
" transform="scale(0.015625)"/>
       <path id="DejaVuSans-72" d="M 2631 2963 
Q 2534 3019 2420 3045 
Q 2306 3072 2169 3072 
Q 1681 3072 1420 2755 
Q 1159 2438 1159 1844 
L 1159 0 
L 581 0 
L 581 3500 
L 1159 3500 
L 1159 2956 
Q 1341 3275 1631 3429 
Q 1922 3584 2338 3584 
Q 2397 3584 2469 3576 
Q 2541 3569 2628 3553 
L 2631 2963 
z
" transform="scale(0.015625)"/>
       <path id="DejaVuSans-6f" d="M 1959 3097 
Q 1497 3097 1228 2736 
Q 959 2375 959 1747 
Q 959 1119 1226 758 
Q 1494 397 1959 397 
Q 2419 397 2687 759 
Q 2956 1122 2956 1747 
Q 2956 2369 2687 2733 
Q 2419 3097 1959 3097 
z
M 1959 3584 
Q 2709 3584 3137 3096 
Q 3566 2609 3566 1747 
Q 3566 888 3137 398 
Q 2709 -91 1959 -91 
Q 1206 -91 779 398 
Q 353 888 353 1747 
Q 353 2609 779 3096 
Q 1206 3584 1959 3584 
z
" transform="scale(0.015625)"/>
       <path id="DejaVuSans-6d" d="M 3328 2828 
Q 3544 3216 3844 3400 
Q 4144 3584 4550 3584 
Q 5097 3584 5394 3201 
Q 5691 2819 5691 2113 
L 5691 0 
L 5113 0 
L 5113 2094 
Q 5113 2597 4934 2840 
Q 4756 3084 4391 3084 
Q 3944 3084 3684 2787 
Q 3425 2491 3425 1978 
L 3425 0 
L 2847 0 
L 2847 2094 
Q 2847 2600 2669 2842 
Q 2491 3084 2119 3084 
Q 1678 3084 1418 2786 
Q 1159 2488 1159 1978 
L 1159 0 
L 581 0 
L 581 3500 
L 1159 3500 
L 1159 2956 
Q 1356 3278 1631 3431 
Q 1906 3584 2284 3584 
Q 2666 3584 2933 3390 
Q 3200 3197 3328 2828 
z
" transform="scale(0.015625)"/>
       <path id="DejaVuSans-65" d="M 3597 1894 
L 3597 1613 
L 953 1613 
Q 991 1019 1311 708 
Q 1631 397 2203 397 
Q 2534 397 2845 478 
Q 3156 559 3463 722 
L 3463 178 
Q 3153 47 2828 -22 
Q 2503 -91 2169 -91 
Q 1331 -91 842 396 
Q 353 884 353 1716 
Q 353 2575 817 3079 
Q 1281 3584 2069 3584 
Q 2775 3584 3186 3129 
Q 3597 2675 3597 1894 
z
M 3022 2063 
Q 3016 2534 2758 2815 
Q 2500 3097 2075 3097 
Q 1594 3097 1305 2825 
Q 1016 2553 972 2059 
L 3022 2063 
z
" transform="scale(0.015625)"/>
       <path id="DejaVuSans-74" d="M 1172 4494 
L 1172 3500 
L 2356 3500 
L 2356 3053 
L 1172 3053 
L 1172 1153 
Q 1172 725 1289 603 
Q 1406 481 1766 481 
L 2356 481 
L 2356 0 
L 1766 0 
Q 1100 0 847 248 
Q 594 497 594 1153 
L 594 3053 
L 172 3053 
L 172 3500 
L 594 3500 
L 594 4494 
L 1172 4494 
z
" transform="scale(0.015625)"/>
       <path id="DejaVuSans-20" transform="scale(0.015625)"/>
       <path id="DejaVuSans-53" d="M 3425 4513 
L 3425 3897 
Q 3066 4069 2747 4153 
Q 2428 4238 2131 4238 
Q 1616 4238 1336 4038 
Q 1056 3838 1056 3469 
Q 1056 3159 1242 3001 
Q 1428 2844 1947 2747 
L 2328 2669 
Q 3034 2534 3370 2195 
Q 3706 1856 3706 1288 
Q 3706 609 3251 259 
Q 2797 -91 1919 -91 
Q 1588 -91 1214 -16 
Q 841 59 441 206 
L 441 856 
Q 825 641 1194 531 
Q 1563 422 1919 422 
Q 2459 422 2753 634 
Q 3047 847 3047 1241 
Q 3047 1584 2836 1778 
Q 2625 1972 2144 2069 
L 1759 2144 
Q 1053 2284 737 2584 
Q 422 2884 422 3419 
Q 422 4038 858 4394 
Q 1294 4750 2059 4750 
Q 2388 4750 2728 4690 
Q 3069 4631 3425 4513 
z
" transform="scale(0.015625)"/>
       <path id="DejaVuSans-70" d="M 1159 525 
L 1159 -1331 
L 581 -1331 
L 581 3500 
L 1159 3500 
L 1159 2969 
Q 1341 3281 1617 3432 
Q 1894 3584 2278 3584 
Q 2916 3584 3314 3078 
Q 3713 2572 3713 1747 
Q 3713 922 3314 415 
Q 2916 -91 2278 -91 
Q 1894 -91 1617 61 
Q 1341 213 1159 525 
z
M 3116 1747 
Q 3116 2381 2855 2742 
Q 2594 3103 2138 3103 
Q 1681 3103 1420 2742 
Q 1159 2381 1159 1747 
Q 1159 1113 1420 752 
Q 1681 391 2138 391 
Q 2594 391 2855 752 
Q 3116 1113 3116 1747 
z
" transform="scale(0.015625)"/>
       <path id="DejaVuSans-73" d="M 2834 3397 
L 2834 2853 
Q 2591 2978 2328 3040 
Q 2066 3103 1784 3103 
Q 1356 3103 1142 2972 
Q 928 2841 928 2578 
Q 928 2378 1081 2264 
Q 1234 2150 1697 2047 
L 1894 2003 
Q 2506 1872 2764 1633 
Q 3022 1394 3022 966 
Q 3022 478 2636 193 
Q 2250 -91 1575 -91 
Q 1294 -91 989 -36 
Q 684 19 347 128 
L 347 722 
Q 666 556 975 473 
Q 1284 391 1588 391 
Q 1994 391 2212 530 
Q 2431 669 2431 922 
Q 2431 1156 2273 1281 
Q 2116 1406 1581 1522 
L 1381 1569 
Q 847 1681 609 1914 
Q 372 2147 372 2553 
Q 372 3047 722 3315 
Q 1072 3584 1716 3584 
Q 2034 3584 2315 3537 
Q 2597 3491 2834 3397 
z
" transform="scale(0.015625)"/>
       <path id="DejaVuSans-28" d="M 1984 4856 
Q 1566 4138 1362 3434 
Q 1159 2731 1159 2009 
Q 1159 1288 1364 580 
Q 1569 -128 1984 -844 
L 1484 -844 
Q 1016 -109 783 600 
Q 550 1309 550 2009 
Q 550 2706 781 3412 
Q 1013 4119 1484 4856 
L 1984 4856 
z
" transform="scale(0.015625)"/>
       <path id="DejaVuSans-d7" d="M 4488 3438 
L 3059 2003 
L 4488 575 
L 4116 197 
L 2681 1631 
L 1247 197 
L 878 575 
L 2303 2003 
L 878 3438 
L 1247 3816 
L 2681 2381 
L 4116 3816 
L 4488 3438 
z
" transform="scale(0.015625)"/>
       <path id="DejaVuSans-39" d="M 703 97 
L 703 672 
Q 941 559 1184 500 
Q 1428 441 1663 441 
Q 2288 441 2617 861 
Q 2947 1281 2994 2138 
Q 2813 1869 2534 1725 
Q 2256 1581 1919 1581 
Q 1219 1581 811 2004 
Q 403 2428 403 3163 
Q 403 3881 828 4315 
Q 1253 4750 1959 4750 
Q 2769 4750 3195 4129 
Q 3622 3509 3622 2328 
Q 3622 1225 3098 567 
Q 2575 -91 1691 -91 
Q 1453 -91 1209 -44 
Q 966 3 703 97 
z
M 1959 2075 
Q 2384 2075 2632 2365 
Q 2881 2656 2881 3163 
Q 2881 3666 2632 3958 
Q 2384 4250 1959 4250 
Q 1534 4250 1286 3958 
Q 1038 3666 1038 3163 
Q 1038 2656 1286 2365 
Q 1534 2075 1959 2075 
z
" transform="scale(0.015625)"/>
       <path id="DejaVuSans-29" d="M 513 4856 
L 1013 4856 
Q 1481 4119 1714 3412 
Q 1947 2706 1947 2009 
Q 1947 1309 1714 600 
Q 1481 -109 1013 -844 
L 513 -844 
Q 928 -128 1133 580 
Q 1338 1288 1338 2009 
Q 1338 2731 1133 3434 
Q 928 4138 513 4856 
z
" transform="scale(0.015625)"/>
      </defs>
      <use xlink:href="#DejaVuSans-45" transform="translate(0 0.765625)"/>
      <use xlink:href="#DejaVuSans-6e" transform="translate(63.183594 0.765625)"/>
      <use xlink:href="#DejaVuSans-76" transform="translate(126.5625 0.765625)"/>
      <use xlink:href="#DejaVuSans-69" transform="translate(185.742188 0.765625)"/>
      <use xlink:href="#DejaVuSans-72" transform="translate(213.525391 0.765625)"/>
      <use xlink:href="#DejaVuSans-6f" transform="translate(254.638672 0.765625)"/>
      <use xlink:href="#DejaVuSans-6e" transform="translate(315.820312 0.765625)"/>
      <use xlink:href="#DejaVuSans-6d" transform="translate(379.199219 0.765625)"/>
      <use xlink:href="#DejaVuSans-65" transform="translate(476.611328 0.765625)"/>
      <use xlink:href="#DejaVuSans-6e" transform="translate(538.134766 0.765625)"/>
      <use xlink:href="#DejaVuSans-74" transform="translate(601.513672 0.765625)"/>
      <use xlink:href="#DejaVuSans-20" transform="translate(640.722656 0.765625)"/>
      <use xlink:href="#DejaVuSans-53" transform="translate(672.509766 0.765625)"/>
      <use xlink:href="#DejaVuSans-74" transform="translate(735.986328 0.765625)"/>
      <use xlink:href="#DejaVuSans-65" transform="translate(775.195312 0.765625)"/>
      <use xlink:href="#DejaVuSans-70" transform="translate(836.71875 0.765625)"/>
      <use xlink:href="#DejaVuSans-73" transform="translate(900.195312 0.765625)"/>
      <use xlink:href="#DejaVuSans-20" transform="translate(952.294922 0.765625)"/>
      <use xlink:href="#DejaVuSans-28" transform="translate(984.082031 0.765625)"/>
      <use xlink:href="#DejaVuSans-d7" transform="translate(1023.095703 0.765625)"/>
      <use xlink:href="#DejaVuSans-31" transform="translate(1106.884766 0.765625)"/>
      <use xlink:href="#DejaVuSans-30" transform="translate(1170.507812 0.765625)"/>
      <use xlink:href="#DejaVuSans-39" transform="translate(1235.087891 39.046875) scale(0.7)"/>
      <use xlink:href="#DejaVuSans-29" transform="translate(1282.358398 0.765625)"/>
     </g>
    </g>
   </g>
   <g id="matplotlib.axis_2">
    <g id="ytick_1">
     <g id="line2d_10">
      <path d="M 51.558 327.749108 
L 709.632 327.749108 
" clip-path="url(#pad4bfa704d)" style="fill: none; stroke: #cccccc; stroke-opacity: 0.3; stroke-width: 0.8; stroke-linecap: round"/>
     </g>
     <g id="text_11">
      <!-- 10 -->
      <g style="fill: #262626" transform="translate(27.988 332.308171) scale(0.12 -0.12)">
       <use xlink:href="#DejaVuSans-31"/>
       <use xlink:href="#DejaVuSans-30" transform="translate(63.623047 0)"/>
      </g>
     </g>
    </g>
    <g id="ytick_2">
     <g id="line2d_11">
      <path d="M 51.558 250.845924 
L 709.632 250.845924 
" clip-path="url(#pad4bfa704d)" style="fill: none; stroke: #cccccc; stroke-opacity: 0.3; stroke-width: 0.8; stroke-linecap: round"/>
     </g>
     <g id="text_12">
      <!-- 20 -->
      <g style="fill: #262626" transform="translate(27.988 255.404986) scale(0.12 -0.12)">
       <use xlink:href="#DejaVuSans-32"/>
       <use xlink:href="#DejaVuSans-30" transform="translate(63.623047 0)"/>
      </g>
     </g>
    </g>
    <g id="ytick_3">
     <g id="line2d_12">
      <path d="M 51.558 173.942739 
L 709.632 173.942739 
" clip-path="url(#pad4bfa704d)" style="fill: none; stroke: #cccccc; stroke-opacity: 0.3; stroke-width: 0.8; stroke-linecap: round"/>
     </g>
     <g id="text_13">
      <!-- 30 -->
      <g style="fill: #262626" transform="translate(27.988 178.501802) scale(0.12 -0.12)">
       <defs>
        <path id="DejaVuSans-33" d="M 2597 2516 
Q 3050 2419 3304 2112 
Q 3559 1806 3559 1356 
Q 3559 666 3084 287 
Q 2609 -91 1734 -91 
Q 1441 -91 1130 -33 
Q 819 25 488 141 
L 488 750 
Q 750 597 1062 519 
Q 1375 441 1716 441 
Q 2309 441 2620 675 
Q 2931 909 2931 1356 
Q 2931 1769 2642 2001 
Q 2353 2234 1838 2234 
L 1294 2234 
L 1294 2753 
L 1863 2753 
Q 2328 2753 2575 2939 
Q 2822 3125 2822 3475 
Q 2822 3834 2567 4026 
Q 2313 4219 1838 4219 
Q 1578 4219 1281 4162 
Q 984 4106 628 3988 
L 628 4550 
Q 988 4650 1302 4700 
Q 1616 4750 1894 4750 
Q 2613 4750 3031 4423 
Q 3450 4097 3450 3541 
Q 3450 3153 3228 2886 
Q 3006 2619 2597 2516 
z
" transform="scale(0.015625)"/>
       </defs>
       <use xlink:href="#DejaVuSans-33"/>
       <use xlink:href="#DejaVuSans-30" transform="translate(63.623047 0)"/>
      </g>
     </g>
    </g>
    <g id="ytick_4">
     <g id="line2d_13">
      <path d="M 51.558 97.039555 
L 709.632 97.039555 
" clip-path="url(#pad4bfa704d)" style="fill: none; stroke: #cccccc; stroke-opacity: 0.3; stroke-width: 0.8; stroke-linecap: round"/>
     </g>
     <g id="text_14">
      <!-- 40 -->
      <g style="fill: #262626" transform="translate(27.988 101.598617) scale(0.12 -0.12)">
       <defs>
        <path id="DejaVuSans-34" d="M 2419 4116 
L 825 1625 
L 2419 1625 
L 2419 4116 
z
M 2253 4666 
L 3047 4666 
L 3047 1625 
L 3713 1625 
L 3713 1100 
L 3047 1100 
L 3047 0 
L 2419 0 
L 2419 1100 
L 313 1100 
L 313 1709 
L 2253 4666 
z
" transform="scale(0.015625)"/>
       </defs>
       <use xlink:href="#DejaVuSans-34"/>
       <use xlink:href="#DejaVuSans-30" transform="translate(63.623047 0)"/>
      </g>
     </g>
    </g>
    <g id="ytick_5">
     <g id="line2d_14">
      <path d="M 51.558 20.13637 
L 709.632 20.13637 
" clip-path="url(#pad4bfa704d)" style="fill: none; stroke: #cccccc; stroke-opacity: 0.3; stroke-width: 0.8; stroke-linecap: round"/>
     </g>
     <g id="text_15">
      <!-- 50 -->
      <g style="fill: #262626" transform="translate(27.988 24.695433) scale(0.12 -0.12)">
       <use xlink:href="#DejaVuSans-35"/>
       <use xlink:href="#DejaVuSans-30" transform="translate(63.623047 0)"/>
      </g>
     </g>
    </g>
    <g id="text_16">
     <!-- Mean Episode Return -->
     <g style="fill: #262626" transform="translate(21.076438 268.288656) rotate(-90) scale(0.14 -0.14)">
      <defs>
       <path id="DejaVuSans-4d" d="M 628 4666 
L 1569 4666 
L 2759 1491 
L 3956 4666 
L 4897 4666 
L 4897 0 
L 4281 0 
L 4281 4097 
L 3078 897 
L 2444 897 
L 1241 4097 
L 1241 0 
L 628 0 
L 628 4666 
z
" transform="scale(0.015625)"/>
       <path id="DejaVuSans-61" d="M 2194 1759 
Q 1497 1759 1228 1600 
Q 959 1441 959 1056 
Q 959 750 1161 570 
Q 1363 391 1709 391 
Q 2188 391 2477 730 
Q 2766 1069 2766 1631 
L 2766 1759 
L 2194 1759 
z
M 3341 1997 
L 3341 0 
L 2766 0 
L 2766 531 
Q 2569 213 2275 61 
Q 1981 -91 1556 -91 
Q 1019 -91 701 211 
Q 384 513 384 1019 
Q 384 1609 779 1909 
Q 1175 2209 1959 2209 
L 2766 2209 
L 2766 2266 
Q 2766 2663 2505 2880 
Q 2244 3097 1772 3097 
Q 1472 3097 1187 3025 
Q 903 2953 641 2809 
L 641 3341 
Q 956 3463 1253 3523 
Q 1550 3584 1831 3584 
Q 2591 3584 2966 3190 
Q 3341 2797 3341 1997 
z
" transform="scale(0.015625)"/>
       <path id="DejaVuSans-64" d="M 2906 2969 
L 2906 4863 
L 3481 4863 
L 3481 0 
L 2906 0 
L 2906 525 
Q 2725 213 2448 61 
Q 2172 -91 1784 -91 
Q 1150 -91 751 415 
Q 353 922 353 1747 
Q 353 2572 751 3078 
Q 1150 3584 1784 3584 
Q 2172 3584 2448 3432 
Q 2725 3281 2906 2969 
z
M 947 1747 
Q 947 1113 1208 752 
Q 1469 391 1925 391 
Q 2381 391 2643 752 
Q 2906 1113 2906 1747 
Q 2906 2381 2643 2742 
Q 2381 3103 1925 3103 
Q 1469 3103 1208 2742 
Q 947 2381 947 1747 
z
" transform="scale(0.015625)"/>
       <path id="DejaVuSans-52" d="M 2841 2188 
Q 3044 2119 3236 1894 
Q 3428 1669 3622 1275 
L 4263 0 
L 3584 0 
L 2988 1197 
Q 2756 1666 2539 1819 
Q 2322 1972 1947 1972 
L 1259 1972 
L 1259 0 
L 628 0 
L 628 4666 
L 2053 4666 
Q 2853 4666 3247 4331 
Q 3641 3997 3641 3322 
Q 3641 2881 3436 2590 
Q 3231 2300 2841 2188 
z
M 1259 4147 
L 1259 2491 
L 2053 2491 
Q 2509 2491 2742 2702 
Q 2975 2913 2975 3322 
Q 2975 3731 2742 3939 
Q 2509 4147 2053 4147 
L 1259 4147 
z
" transform="scale(0.015625)"/>
       <path id="DejaVuSans-75" d="M 544 1381 
L 544 3500 
L 1119 3500 
L 1119 1403 
Q 1119 906 1312 657 
Q 1506 409 1894 409 
Q 2359 409 2629 706 
Q 2900 1003 2900 1516 
L 2900 3500 
L 3475 3500 
L 3475 0 
L 2900 0 
L 2900 538 
Q 2691 219 2414 64 
Q 2138 -91 1772 -91 
Q 1169 -91 856 284 
Q 544 659 544 1381 
z
M 1991 3584 
L 1991 3584 
z
" transform="scale(0.015625)"/>
      </defs>
      <use xlink:href="#DejaVuSans-4d"/>
      <use xlink:href="#DejaVuSans-65" transform="translate(86.279297 0)"/>
      <use xlink:href="#DejaVuSans-61" transform="translate(147.802734 0)"/>
      <use xlink:href="#DejaVuSans-6e" transform="translate(209.082031 0)"/>
      <use xlink:href="#DejaVuSans-20" transform="translate(272.460938 0)"/>
      <use xlink:href="#DejaVuSans-45" transform="translate(304.248047 0)"/>
      <use xlink:href="#DejaVuSans-70" transform="translate(367.431641 0)"/>
      <use xlink:href="#DejaVuSans-69" transform="translate(430.908203 0)"/>
      <use xlink:href="#DejaVuSans-73" transform="translate(458.691406 0)"/>
      <use xlink:href="#DejaVuSans-6f" transform="translate(510.791016 0)"/>
      <use xlink:href="#DejaVuSans-64" transform="translate(571.972656 0)"/>
      <use xlink:href="#DejaVuSans-65" transform="translate(635.449219 0)"/>
      <use xlink:href="#DejaVuSans-20" transform="translate(696.972656 0)"/>
      <use xlink:href="#DejaVuSans-52" transform="translate(728.759766 0)"/>
      <use xlink:href="#DejaVuSans-65" transform="translate(793.742188 0)"/>
      <use xlink:href="#DejaVuSans-74" transform="translate(855.265625 0)"/>
      <use xlink:href="#DejaVuSans-75" transform="translate(894.474609 0)"/>
      <use xlink:href="#DejaVuSans-72" transform="translate(957.853516 0)"/>
      <use xlink:href="#DejaVuSans-6e" transform="translate(997.216797 0)"/>
     </g>
    </g>
   </g>
   <g id="FillBetweenPolyCollection_1">
    <defs>
     <path id="mb6d45d4311" d="M 82.841928 -120.138787 
L 82.841928 -117.092996 
L 94.709 -159.716705 
L 106.576071 -169.886141 
L 118.443143 -172.519869 
L 130.310214 -187.972051 
L 142.177286 -211.850546 
L 154.044357 -238.777693 
L 165.911429 -274.406986 
L 177.7785 -289.23794 
L 189.645572 -285.892842 
L 201.512643 -304.539604 
L 213.379715 -305.272338 
L 225.246786 -314.330867 
L 237.113858 -317.291049 
L 248.980929 -316.060075 
L 260.848001 -308.790906 
L 272.715072 -320.234192 
L 284.582144 -330.126653 
L 296.449215 -332.667174 
L 308.316287 -338.410549 
L 320.183358 -344.132538 
L 332.05043 -338.378221 
L 343.917502 -345.279867 
L 355.784573 -336.606242 
L 367.651645 -349.464228 
L 379.518716 -354.366936 
L 391.385788 -345.784203 
L 403.252859 -352.444431 
L 415.119931 -358.862345 
L 426.987002 -361.244049 
L 438.854074 -360.581723 
L 450.721145 -362.599542 
L 462.588217 -361.058474 
L 474.455288 -365.69186 
L 486.32236 -371.300469 
L 498.189431 -366.318112 
L 510.056503 -372.73352 
L 521.923574 -371.492036 
L 533.790646 -371.27156 
L 545.657717 -374.45622 
L 557.524789 -376.81921 
L 569.39186 -381.948013 
L 581.258932 -373.850163 
L 593.126004 -380.432537 
L 604.993075 -382.398279 
L 616.860147 -385.362615 
L 628.727218 -387.754444 
L 640.59429 -389.373441 
L 644.54998 -389.936866 
L 648.505671 -391.943101 
L 652.461361 -390.207878 
L 656.417052 -390.132152 
L 660.372742 -394.001947 
L 664.328433 -395.118537 
L 668.284123 -395.436268 
L 672.239814 -395.023981 
L 676.195504 -396.952547 
L 676.195504 -404.473354 
L 676.195504 -404.473354 
L 672.239814 -402.43334 
L 668.284123 -404.934 
L 664.328433 -401.483574 
L 660.372742 -401.244253 
L 656.417052 -398.973066 
L 652.461361 -397.918875 
L 648.505671 -401.011347 
L 644.54998 -400.61015 
L 640.59429 -395.662283 
L 628.727218 -395.116948 
L 616.860147 -392.527086 
L 604.993075 -391.604727 
L 593.126004 -389.432408 
L 581.258932 -388.398693 
L 569.39186 -389.774763 
L 557.524789 -382.709793 
L 545.657717 -384.599687 
L 533.790646 -382.556249 
L 521.923574 -380.743201 
L 510.056503 -379.503238 
L 498.189431 -376.352174 
L 486.32236 -377.98125 
L 474.455288 -377.82398 
L 462.588217 -372.885894 
L 450.721145 -370.633164 
L 438.854074 -368.354219 
L 426.987002 -369.252034 
L 415.119931 -366.077834 
L 403.252859 -358.544139 
L 391.385788 -357.976488 
L 379.518716 -360.563541 
L 367.651645 -357.621204 
L 355.784573 -348.682598 
L 343.917502 -351.603498 
L 332.05043 -346.961158 
L 320.183358 -350.719077 
L 308.316287 -344.227115 
L 296.449215 -336.981852 
L 284.582144 -335.521779 
L 272.715072 -325.725111 
L 260.848001 -316.831169 
L 248.980929 -323.592063 
L 237.113858 -322.365018 
L 225.246786 -319.907791 
L 213.379715 -312.333617 
L 201.512643 -310.575763 
L 189.645572 -299.696545 
L 177.7785 -298.9435 
L 165.911429 -284.99265 
L 154.044357 -268.252303 
L 142.177286 -236.12856 
L 130.310214 -203.983461 
L 118.443143 -177.804139 
L 106.576071 -171.86992 
L 94.709 -162.376852 
L 82.841928 -120.138787 
z
"/>
    </defs>
    <g clip-path="url(#pad4bfa704d)">
     <use xlink:href="#mb6d45d4311" x="0" y="432" style="fill: #0173b2; fill-opacity: 0.2"/>
    </g>
   </g>
   <g id="FillBetweenPolyCollection_2">
    <defs>
     <path id="m352c7904a2" d="M 82.841928 -161.270406 
L 82.841928 -153.246972 
L 94.709 -163.128151 
L 106.576071 -166.300841 
L 118.443143 -170.173228 
L 130.310214 -172.879671 
L 142.177286 -179.302464 
L 154.044357 -192.55329 
L 165.911429 -207.053095 
L 177.7785 -221.831817 
L 189.645572 -233.748637 
L 201.512643 -237.979839 
L 213.379715 -245.850081 
L 225.246786 -255.987162 
L 237.113858 -262.218493 
L 248.980929 -266.102284 
L 260.848001 -263.675776 
L 272.715072 -261.630591 
L 284.582144 -268.315414 
L 296.449215 -275.930723 
L 308.316287 -286.369283 
L 320.183358 -282.775064 
L 332.05043 -289.126341 
L 343.917502 -296.060591 
L 355.784573 -293.173789 
L 367.651645 -297.439632 
L 379.518716 -303.672773 
L 391.385788 -299.678651 
L 403.252859 -306.066443 
L 415.119931 -304.991089 
L 426.987002 -309.77778 
L 438.854074 -311.728395 
L 450.721145 -307.548264 
L 462.588217 -312.297033 
L 474.455288 -312.197139 
L 486.32236 -317.350084 
L 498.189431 -317.326247 
L 510.056503 -318.802377 
L 521.923574 -316.772551 
L 533.790646 -321.36488 
L 545.657717 -324.754853 
L 557.524789 -325.670552 
L 569.39186 -326.716796 
L 581.258932 -326.907451 
L 593.126004 -331.742251 
L 604.993075 -333.325212 
L 616.860147 -336.26868 
L 628.727218 -336.973058 
L 640.59429 -336.904848 
L 644.54998 -340.064227 
L 648.505671 -339.902161 
L 652.461361 -341.331727 
L 656.417052 -342.776311 
L 660.372742 -343.282617 
L 664.328433 -344.353377 
L 668.284123 -344.975935 
L 672.239814 -344.456856 
L 676.195504 -345.431117 
L 676.195504 -348.949518 
L 676.195504 -348.949518 
L 672.239814 -347.310204 
L 668.284123 -347.754548 
L 664.328433 -347.755618 
L 660.372742 -347.016879 
L 656.417052 -346.094952 
L 652.461361 -344.397508 
L 648.505671 -344.453631 
L 644.54998 -342.836473 
L 640.59429 -340.331965 
L 628.727218 -340.683965 
L 616.860147 -338.476739 
L 604.993075 -337.956199 
L 593.126004 -337.270564 
L 581.258932 -333.592633 
L 569.39186 -333.886102 
L 557.524789 -331.403137 
L 545.657717 -329.455978 
L 533.790646 -326.494672 
L 521.923574 -324.389222 
L 510.056503 -325.55381 
L 498.189431 -320.648728 
L 486.32236 -323.788483 
L 474.455288 -319.444407 
L 462.588217 -319.864896 
L 450.721145 -312.901109 
L 438.854074 -321.517156 
L 426.987002 -318.57202 
L 415.119931 -314.483821 
L 403.252859 -315.535445 
L 391.385788 -308.456437 
L 379.518716 -312.637034 
L 367.651645 -308.13703 
L 355.784573 -303.663674 
L 343.917502 -305.322991 
L 332.05043 -301.367492 
L 320.183358 -298.216976 
L 308.316287 -300.847649 
L 296.449215 -297.042073 
L 284.582144 -292.777353 
L 272.715072 -285.980094 
L 260.848001 -292.979544 
L 248.980929 -293.0042 
L 237.113858 -288.957221 
L 225.246786 -282.611286 
L 213.379715 -276.570238 
L 201.512643 -271.617995 
L 189.645572 -268.631058 
L 177.7785 -256.753674 
L 165.911429 -237.486328 
L 154.044357 -222.247849 
L 142.177286 -206.603083 
L 130.310214 -193.690618 
L 118.443143 -187.923066 
L 106.576071 -171.69567 
L 94.709 -166.10147 
L 82.841928 -161.270406 
z
"/>
    </defs>
    <g clip-path="url(#pad4bfa704d)">
     <use xlink:href="#m352c7904a2" x="0" y="432" style="fill: #de8f05; fill-opacity: 0.2"/>
    </g>
   </g>
   <g id="FillBetweenPolyCollection_3">
    <defs>
     <path id="m66c481bb5b" d="M 83.633066 -138.668653 
L 83.633066 -121.045298 
L 96.291276 -145.692277 
L 108.949485 -152.615911 
L 121.607695 -160.229 
L 134.265905 -165.630772 
L 146.924114 -165.600692 
L 159.582324 -180.280263 
L 172.240533 -194.040361 
L 184.898743 -209.278316 
L 197.556953 -222.968908 
L 210.215162 -231.984195 
L 222.873372 -234.786423 
L 235.531582 -247.068687 
L 248.189791 -244.107223 
L 260.848001 -246.325417 
L 273.50621 -247.961472 
L 286.16442 -256.142612 
L 298.82263 -246.142398 
L 311.480839 -255.162762 
L 324.139049 -255.209 
L 336.797259 -255.020352 
L 349.455468 -261.909914 
L 362.113678 -261.206206 
L 374.771887 -268.5361 
L 387.430097 -268.447186 
L 400.088307 -274.180411 
L 412.746516 -276.110559 
L 425.404726 -276.670966 
L 438.062936 -286.211491 
L 450.721145 -295.546036 
L 463.379355 -300.484389 
L 476.037565 -302.975327 
L 488.695774 -304.787055 
L 501.353984 -308.687342 
L 514.012193 -308.511605 
L 526.670403 -308.745713 
L 539.328613 -311.245418 
L 551.986822 -316.14419 
L 564.645032 -315.212111 
L 577.303242 -317.840117 
L 589.961451 -320.174032 
L 602.619661 -323.004485 
L 615.27787 -324.735334 
L 627.93608 -326.796732 
L 640.59429 -328.229784 
L 653.252499 -335.73586 
L 665.910709 -337.077848 
L 678.568919 -340.249394 
L 678.568919 -346.403824 
L 678.568919 -346.403824 
L 665.910709 -342.076436 
L 653.252499 -341.491569 
L 640.59429 -335.795527 
L 627.93608 -332.715718 
L 615.27787 -330.512771 
L 602.619661 -329.701854 
L 589.961451 -327.877882 
L 577.303242 -324.683414 
L 564.645032 -323.677545 
L 551.986822 -322.46822 
L 539.328613 -320.532849 
L 526.670403 -317.732023 
L 514.012193 -316.827186 
L 501.353984 -316.347171 
L 488.695774 -311.218225 
L 476.037565 -310.093828 
L 463.379355 -308.262799 
L 450.721145 -304.843631 
L 438.062936 -300.842946 
L 425.404726 -299.842821 
L 412.746516 -300.417445 
L 400.088307 -297.347562 
L 387.430097 -293.549497 
L 374.771887 -290.770534 
L 362.113678 -281.196997 
L 349.455468 -283.18727 
L 336.797259 -273.954821 
L 324.139049 -274.701135 
L 311.480839 -274.556353 
L 298.82263 -267.585232 
L 286.16442 -277.316987 
L 273.50621 -266.161278 
L 260.848001 -266.784039 
L 248.189791 -261.891544 
L 235.531582 -267.538206 
L 222.873372 -255.851145 
L 210.215162 -254.292995 
L 197.556953 -242.65382 
L 184.898743 -237.086208 
L 172.240533 -220.771061 
L 159.582324 -198.172866 
L 146.924114 -168.051821 
L 134.265905 -169.486392 
L 121.607695 -164.270418 
L 108.949485 -159.973105 
L 96.291276 -155.40651 
L 83.633066 -138.668653 
z
"/>
    </defs>
    <g clip-path="url(#pad4bfa704d)">
     <use xlink:href="#m66c481bb5b" x="0" y="432" style="fill: #029e73; fill-opacity: 0.2"/>
    </g>
   </g>
   <g id="FillBetweenPolyCollection_4">
    <defs>
     <path id="m1d9b043d38" d="M 83.633066 -116.375719 
L 83.633066 -98.007623 
L 96.291276 -133.99221 
L 108.949485 -151.699482 
L 121.607695 -160.495414 
L 134.265905 -161.004604 
L 146.924114 -163.819599 
L 159.582324 -169.399236 
L 172.240533 -171.131527 
L 184.898743 -175.954439 
L 197.556953 -182.992433 
L 210.215162 -192.730875 
L 222.873372 -199.997292 
L 235.531582 -208.434789 
L 248.189791 -233.462616 
L 260.848001 -243.378612 
L 273.50621 -251.808731 
L 286.16442 -255.17519 
L 298.82263 -256.273288 
L 311.480839 -261.920008 
L 324.139049 -266.233978 
L 336.797259 -266.243814 
L 349.455468 -267.914229 
L 362.113678 -269.734436 
L 374.771887 -272.296915 
L 387.430097 -274.557185 
L 400.088307 -276.496369 
L 412.746516 -268.884256 
L 425.404726 -285.754108 
L 438.062936 -283.175061 
L 450.721145 -287.932701 
L 463.379355 -288.099642 
L 476.037565 -293.120509 
L 488.695774 -298.669468 
L 501.353984 -295.949613 
L 514.012193 -303.394249 
L 526.670403 -299.871597 
L 539.328613 -303.036324 
L 551.986822 -303.114932 
L 564.645032 -309.698477 
L 577.303242 -315.225892 
L 589.961451 -318.528316 
L 602.619661 -315.862818 
L 615.27787 -317.598937 
L 627.93608 -322.781438 
L 640.59429 -326.025189 
L 653.252499 -327.999019 
L 665.910709 -330.157918 
L 678.568919 -335.450924 
L 678.568919 -340.52575 
L 678.568919 -340.52575 
L 665.910709 -336.430387 
L 653.252499 -333.032484 
L 640.59429 -330.644863 
L 627.93608 -326.290614 
L 615.27787 -322.254318 
L 602.619661 -322.129505 
L 589.961451 -321.919207 
L 577.303242 -320.030742 
L 564.645032 -317.506198 
L 551.986822 -311.807536 
L 539.328613 -309.982876 
L 526.670403 -308.472317 
L 514.012193 -312.074096 
L 501.353984 -304.479311 
L 488.695774 -305.708283 
L 476.037565 -297.37964 
L 463.379355 -295.483138 
L 450.721145 -297.659187 
L 438.062936 -290.860181 
L 425.404726 -291.122609 
L 412.746516 -279.534377 
L 400.088307 -286.71783 
L 387.430097 -285.273155 
L 374.771887 -279.808624 
L 362.113678 -277.56908 
L 349.455468 -274.621747 
L 336.797259 -273.574704 
L 324.139049 -273.610778 
L 311.480839 -272.646255 
L 298.82263 -267.740087 
L 286.16442 -263.110393 
L 273.50621 -258.251576 
L 260.848001 -250.631173 
L 248.189791 -250.678103 
L 235.531582 -230.386 
L 222.873372 -230.247366 
L 210.215162 -215.614527 
L 197.556953 -202.347777 
L 184.898743 -201.361153 
L 172.240533 -191.354578 
L 159.582324 -187.361961 
L 146.924114 -174.999666 
L 134.265905 -163.025068 
L 121.607695 -163.165141 
L 108.949485 -155.826807 
L 96.291276 -144.917892 
L 83.633066 -116.375719 
z
"/>
    </defs>
    <g clip-path="url(#pad4bfa704d)">
     <use xlink:href="#m1d9b043d38" x="0" y="432" style="fill: #d55e00; fill-opacity: 0.2"/>
    </g>
   </g>
   <g id="FillBetweenPolyCollection_5">
    <defs>
     <path id="mc8212d2eea" d="M 81.470455 -83.5003 
L 81.470455 -70.974 
L 91.966053 -105.619485 
L 102.461651 -125.68365 
L 112.957249 -134.397591 
L 123.452847 -141.795157 
L 133.948445 -152.603409 
L 144.444043 -156.179257 
L 154.939641 -160.360077 
L 165.435239 -161.096968 
L 175.930837 -163.477881 
L 186.426435 -163.21672 
L 196.922033 -167.594623 
L 207.417632 -171.986984 
L 217.91323 -177.263368 
L 228.408828 -175.80707 
L 238.904426 -177.627915 
L 249.400024 -180.32921 
L 259.895622 -185.03602 
L 270.39122 -185.251547 
L 280.886818 -187.446737 
L 291.382416 -190.231166 
L 301.878014 -192.175299 
L 312.373612 -193.653806 
L 322.869211 -203.833902 
L 333.364809 -209.328654 
L 343.860407 -211.229775 
L 354.356005 -211.339119 
L 364.851603 -213.255741 
L 375.347201 -219.392065 
L 385.842799 -224.340087 
L 396.338397 -221.28354 
L 406.833995 -224.224372 
L 417.329593 -226.726093 
L 427.825191 -232.439105 
L 438.320789 -237.59387 
L 448.816388 -240.685756 
L 459.311986 -243.11555 
L 469.807584 -247.825157 
L 480.303182 -252.364036 
L 490.79878 -250.743778 
L 501.294378 -256.785174 
L 511.789976 -259.588053 
L 522.285574 -260.379695 
L 532.781172 -271.57809 
L 543.27677 -274.885974 
L 553.772368 -275.800005 
L 564.267967 -277.254056 
L 574.763565 -282.678093 
L 585.259163 -285.522502 
L 595.754761 -291.698865 
L 606.250359 -291.540215 
L 616.745957 -297.558655 
L 627.241555 -295.358386 
L 637.737153 -297.89596 
L 648.232751 -298.817516 
L 658.728349 -298.864248 
L 669.223947 -304.743047 
L 679.719545 -304.360786 
L 679.719545 -311.916931 
L 679.719545 -311.916931 
L 669.223947 -310.879254 
L 658.728349 -307.160009 
L 648.232751 -307.519786 
L 637.737153 -306.890779 
L 627.241555 -304.001031 
L 616.745957 -306.967442 
L 606.250359 -300.714403 
L 595.754761 -301.567838 
L 585.259163 -297.927745 
L 574.763565 -295.723329 
L 564.267967 -287.401471 
L 553.772368 -290.630755 
L 543.27677 -289.35013 
L 532.781172 -291.146229 
L 522.285574 -282.901199 
L 511.789976 -284.602527 
L 501.294378 -282.843417 
L 490.79878 -276.681798 
L 480.303182 -279.827682 
L 469.807584 -276.516388 
L 459.311986 -272.742891 
L 448.816388 -268.248121 
L 438.320789 -266.950688 
L 427.825191 -262.815839 
L 417.329593 -257.072252 
L 406.833995 -257.677223 
L 396.338397 -251.951336 
L 385.842799 -256.324634 
L 375.347201 -249.485719 
L 364.851603 -241.342217 
L 354.356005 -238.52022 
L 343.860407 -239.585366 
L 333.364809 -239.147577 
L 322.869211 -234.308397 
L 312.373612 -221.62064 
L 301.878014 -222.455222 
L 291.382416 -220.600968 
L 280.886818 -216.922528 
L 270.39122 -209.373833 
L 259.895622 -213.281472 
L 249.400024 -205.985697 
L 238.904426 -204.395479 
L 228.408828 -199.137333 
L 217.91323 -199.526952 
L 207.417632 -193.875907 
L 196.922033 -187.499347 
L 186.426435 -177.036363 
L 175.930837 -168.99499 
L 165.435239 -164.582289 
L 154.939641 -162.882536 
L 144.444043 -160.716219 
L 133.948445 -157.576556 
L 123.452847 -150.836774 
L 112.957249 -147.342112 
L 102.461651 -142.311475 
L 91.966053 -118.792047 
L 81.470455 -83.5003 
z
"/>
    </defs>
    <g clip-path="url(#pad4bfa704d)">
     <use xlink:href="#mc8212d2eea" x="0" y="432" style="fill: #cc78bc; fill-opacity: 0.2"/>
    </g>
   </g>
   <g id="line2d_15">
    <path d="M 82.841928 313.384108 
L 94.709 270.953222 
L 106.576071 261.12197 
L 118.443143 256.837996 
L 130.310214 236.022244 
L 142.177286 208.010447 
L 154.044357 178.485002 
L 165.911429 152.300182 
L 177.7785 137.90928 
L 189.645572 139.205307 
L 201.512643 124.442317 
L 213.379715 123.197023 
L 225.246786 114.880671 
L 237.113858 112.171967 
L 248.980929 112.173931 
L 260.848001 119.188963 
L 272.715072 109.020349 
L 284.582144 99.175784 
L 296.449215 97.175487 
L 308.316287 90.681168 
L 320.183358 84.574193 
L 332.05043 89.330311 
L 343.917502 83.558317 
L 355.784573 89.35558 
L 367.651645 78.457284 
L 379.518716 74.534761 
L 391.385788 80.119655 
L 403.252859 76.505715 
L 415.119931 69.529911 
L 426.987002 66.751959 
L 438.854074 67.532029 
L 450.721145 65.383647 
L 462.588217 65.027816 
L 474.455288 60.24208 
L 486.32236 57.359141 
L 498.189431 60.664857 
L 510.056503 55.881621 
L 521.923574 55.882381 
L 533.790646 55.086096 
L 545.657717 52.472046 
L 557.524789 52.235499 
L 569.39186 46.138612 
L 581.258932 50.875572 
L 593.126004 47.067528 
L 604.993075 44.998497 
L 616.860147 43.05515 
L 628.727218 40.564304 
L 640.59429 39.482138 
L 644.54998 36.726492 
L 648.505671 35.522776 
L 652.461361 37.936623 
L 656.417052 37.447391 
L 660.372742 34.3769 
L 664.328433 33.698944 
L 668.284123 31.814866 
L 672.239814 33.271339 
L 676.195504 31.28705 
" clip-path="url(#pad4bfa704d)" style="fill: none; stroke: #0173b2; stroke-width: 2.5; stroke-linecap: round"/>
   </g>
   <g id="line2d_16">
    <path d="M 82.841928 274.741311 
L 94.709 267.38519 
L 106.576071 263.001744 
L 118.443143 252.951853 
L 130.310214 248.714856 
L 142.177286 239.047227 
L 154.044357 224.599431 
L 165.911429 209.730288 
L 177.7785 192.707254 
L 189.645572 180.810153 
L 201.512643 177.201083 
L 213.379715 170.78984 
L 225.246786 162.700776 
L 237.113858 156.412143 
L 248.980929 152.446758 
L 260.848001 153.67234 
L 272.715072 158.194657 
L 284.582144 151.453616 
L 296.449215 145.513602 
L 308.316287 138.391534 
L 320.183358 141.50398 
L 332.05043 136.753084 
L 343.917502 131.308209 
L 355.784573 133.581268 
L 367.651645 129.211669 
L 379.518716 123.845097 
L 391.385788 127.932456 
L 403.252859 121.199056 
L 415.119931 122.262545 
L 426.987002 117.8251 
L 438.854074 115.377225 
L 450.721145 121.775313 
L 462.588217 115.919035 
L 474.455288 116.179227 
L 486.32236 111.430717 
L 498.189431 113.012512 
L 510.056503 109.821906 
L 521.923574 111.419113 
L 533.790646 108.070224 
L 545.657717 104.894584 
L 557.524789 103.463155 
L 569.39186 101.698551 
L 581.258932 101.749958 
L 593.126004 97.493592 
L 604.993075 96.359294 
L 616.860147 94.62729 
L 628.727218 93.171488 
L 640.59429 93.381593 
L 644.54998 90.54965 
L 648.505671 89.822104 
L 652.461361 89.135382 
L 656.417052 87.564369 
L 660.372742 86.850252 
L 664.328433 85.945502 
L 668.284123 85.634759 
L 672.239814 86.11647 
L 676.195504 84.809682 
" clip-path="url(#pad4bfa704d)" style="fill: none; stroke: #de8f05; stroke-width: 2.5; stroke-linecap: round"/>
   </g>
   <g id="line2d_17">
    <path d="M 83.633066 302.143025 
L 96.291276 281.450606 
L 108.949485 275.705492 
L 121.607695 269.750291 
L 134.265905 264.441418 
L 146.924114 265.173744 
L 159.582324 242.773435 
L 172.240533 224.594289 
L 184.898743 208.817738 
L 197.556953 199.188636 
L 210.215162 188.861405 
L 222.873372 186.681216 
L 235.531582 174.696554 
L 248.189791 179.000616 
L 260.848001 175.445272 
L 273.50621 174.938625 
L 286.16442 165.270201 
L 298.82263 175.136185 
L 311.480839 167.140443 
L 324.139049 167.044932 
L 336.797259 167.512414 
L 349.455468 159.451408 
L 362.113678 160.798399 
L 374.771887 152.346683 
L 387.430097 151.001658 
L 400.088307 146.236013 
L 412.746516 143.735998 
L 425.404726 143.743107 
L 438.062936 138.472782 
L 450.721145 131.805166 
L 463.379355 127.626406 
L 476.037565 125.465422 
L 488.695774 123.99736 
L 501.353984 119.482743 
L 514.012193 119.330605 
L 526.670403 118.761132 
L 539.328613 116.110867 
L 551.986822 112.693795 
L 564.645032 112.555172 
L 577.303242 110.738234 
L 589.961451 107.974043 
L 602.619661 105.64683 
L 615.27787 104.375947 
L 627.93608 102.243775 
L 640.59429 99.987345 
L 653.252499 93.386286 
L 665.910709 92.422858 
L 678.568919 88.673391 
" clip-path="url(#pad4bfa704d)" style="fill: none; stroke: #029e73; stroke-width: 2.5; stroke-linecap: round"/>
   </g>
   <g id="line2d_18">
    <path d="M 83.633066 324.808329 
L 96.291276 292.544949 
L 108.949485 278.236856 
L 121.607695 270.169723 
L 134.265905 269.985164 
L 146.924114 262.590367 
L 159.582324 253.619402 
L 172.240533 250.756947 
L 184.898743 243.342204 
L 197.556953 239.329895 
L 210.215162 227.827299 
L 222.873372 216.877671 
L 235.531582 212.589606 
L 248.189791 189.929641 
L 260.848001 184.995108 
L 273.50621 176.969847 
L 286.16442 172.857208 
L 298.82263 169.993312 
L 311.480839 164.716868 
L 324.139049 162.077622 
L 336.797259 162.090741 
L 349.455468 160.732012 
L 362.113678 158.348242 
L 374.771887 155.947231 
L 387.430097 152.08483 
L 400.088307 150.392901 
L 412.746516 157.790684 
L 425.404726 143.561641 
L 438.062936 144.982379 
L 450.721145 139.204056 
L 463.379355 140.20861 
L 476.037565 136.749925 
L 488.695774 129.811124 
L 501.353984 131.785538 
L 514.012193 124.265827 
L 526.670403 127.828043 
L 539.328613 125.4904 
L 551.986822 124.538766 
L 564.645032 118.397663 
L 577.303242 114.371683 
L 589.961451 111.776239 
L 602.619661 113.003839 
L 615.27787 112.073372 
L 627.93608 107.463974 
L 640.59429 103.664974 
L 653.252499 101.484248 
L 665.910709 98.705847 
L 678.568919 94.011663 
" clip-path="url(#pad4bfa704d)" style="fill: none; stroke: #d55e00; stroke-width: 2.5; stroke-linecap: round"/>
   </g>
   <g id="line2d_19">
    <path d="M 81.470455 354.76285 
L 91.966053 319.794234 
L 102.461651 298.002437 
L 112.957249 291.130149 
L 123.452847 285.684034 
L 133.948445 276.910018 
L 144.444043 273.552262 
L 154.939641 270.378693 
L 165.435239 269.160371 
L 175.930837 265.763564 
L 186.426435 261.873458 
L 196.922033 254.453015 
L 207.417632 249.068555 
L 217.91323 243.60484 
L 228.408828 244.527799 
L 238.904426 240.988303 
L 249.400024 238.842546 
L 259.895622 232.841254 
L 270.39122 234.68731 
L 280.886818 229.815367 
L 291.382416 226.583933 
L 301.878014 224.684739 
L 312.373612 224.362777 
L 322.869211 212.928851 
L 333.364809 207.761885 
L 343.860407 206.59243 
L 354.356005 207.070331 
L 364.851603 204.701021 
L 375.347201 197.561108 
L 385.842799 191.667639 
L 396.338397 195.382562 
L 406.833995 191.049203 
L 417.329593 190.100827 
L 427.825191 184.372528 
L 438.320789 179.727721 
L 448.816388 177.533062 
L 459.311986 174.070779 
L 469.807584 169.829228 
L 480.303182 165.904141 
L 490.79878 168.287212 
L 501.294378 162.185705 
L 511.789976 159.90471 
L 522.285574 160.359553 
L 532.781172 150.637841 
L 543.27677 149.881948 
L 553.772368 148.78462 
L 564.267967 149.672236 
L 574.763565 142.799289 
L 585.259163 140.274876 
L 595.754761 135.366648 
L 606.250359 135.872691 
L 616.745957 129.736952 
L 627.241555 132.320291 
L 637.737153 129.606631 
L 648.232751 128.831349 
L 658.728349 128.987872 
L 669.223947 124.18885 
L 679.719545 123.861141 
" clip-path="url(#pad4bfa704d)" style="fill: none; stroke: #cc78bc; stroke-width: 2.5; stroke-linecap: round"/>
   </g>
   <g id="patch_3">
    <path d="M 51.558 377.724 
L 51.558 10.368 
" style="fill: none; stroke: #cccccc; stroke-linejoin: miter; stroke-linecap: square"/>
   </g>
   <g id="patch_4">
    <path d="M 709.632 377.724 
L 709.632 10.368 
" style="fill: none; stroke: #cccccc; stroke-linejoin: miter; stroke-linecap: square"/>
   </g>
   <g id="patch_5">
    <path d="M 51.558 377.724 
L 709.632 377.724 
" style="fill: none; stroke: #cccccc; stroke-linejoin: miter; stroke-linecap: square"/>
   </g>
   <g id="patch_6">
    <path d="M 51.558 10.368 
L 709.632 10.368 
" style="fill: none; stroke: #cccccc; stroke-linejoin: miter; stroke-linecap: square"/>
   </g>
   <g id="legend_1">
    <g id="patch_7">
     <path d="M 59.958 125.6505 
L 183.068625 125.6505 
Q 185.468625 125.6505 185.468625 123.2505 
L 185.468625 18.768 
Q 185.468625 16.368 183.068625 16.368 
L 59.958 16.368 
Q 57.558 16.368 57.558 18.768 
L 57.558 123.2505 
Q 57.558 125.6505 59.958 125.6505 
z
" style="fill: #ffffff; opacity: 0.8; stroke: #cccccc; stroke-width: 0.8; stroke-linejoin: miter"/>
    </g>
    <g id="text_17">
     <!-- Method -->
     <g style="fill: #262626" transform="translate(99.009563 30.286125) scale(0.12 -0.12)">
      <defs>
       <path id="DejaVuSans-68" d="M 3513 2113 
L 3513 0 
L 2938 0 
L 2938 2094 
Q 2938 2591 2744 2837 
Q 2550 3084 2163 3084 
Q 1697 3084 1428 2787 
Q 1159 2491 1159 1978 
L 1159 0 
L 581 0 
L 581 4863 
L 1159 4863 
L 1159 2956 
Q 1366 3272 1645 3428 
Q 1925 3584 2291 3584 
Q 2894 3584 3203 3211 
Q 3513 2838 3513 2113 
z
" transform="scale(0.015625)"/>
      </defs>
      <use xlink:href="#DejaVuSans-4d"/>
      <use xlink:href="#DejaVuSans-65" transform="translate(86.279297 0)"/>
      <use xlink:href="#DejaVuSans-74" transform="translate(147.802734 0)"/>
      <use xlink:href="#DejaVuSans-68" transform="translate(187.011719 0)"/>
      <use xlink:href="#DejaVuSans-6f" transform="translate(250.390625 0)"/>
      <use xlink:href="#DejaVuSans-64" transform="translate(311.572266 0)"/>
     </g>
    </g>
    <g id="line2d_20">
     <path d="M 62.358 43.699875 
L 74.358 43.699875 
L 86.358 43.699875 
" style="fill: none; stroke: #0173b2; stroke-width: 2.5; stroke-linecap: round"/>
    </g>
    <g id="text_18">
     <!-- DiCode (Ours) -->
     <g style="fill: #262626" transform="translate(95.958 47.899875) scale(0.12 -0.12)">
      <defs>
       <path id="DejaVuSans-44" d="M 1259 4147 
L 1259 519 
L 2022 519 
Q 2988 519 3436 956 
Q 3884 1394 3884 2338 
Q 3884 3275 3436 3711 
Q 2988 4147 2022 4147 
L 1259 4147 
z
M 628 4666 
L 1925 4666 
Q 3281 4666 3915 4102 
Q 4550 3538 4550 2338 
Q 4550 1131 3912 565 
Q 3275 0 1925 0 
L 628 0 
L 628 4666 
z
" transform="scale(0.015625)"/>
       <path id="DejaVuSans-43" d="M 4122 4306 
L 4122 3641 
Q 3803 3938 3442 4084 
Q 3081 4231 2675 4231 
Q 1875 4231 1450 3742 
Q 1025 3253 1025 2328 
Q 1025 1406 1450 917 
Q 1875 428 2675 428 
Q 3081 428 3442 575 
Q 3803 722 4122 1019 
L 4122 359 
Q 3791 134 3420 21 
Q 3050 -91 2638 -91 
Q 1578 -91 968 557 
Q 359 1206 359 2328 
Q 359 3453 968 4101 
Q 1578 4750 2638 4750 
Q 3056 4750 3426 4639 
Q 3797 4528 4122 4306 
z
" transform="scale(0.015625)"/>
       <path id="DejaVuSans-4f" d="M 2522 4238 
Q 1834 4238 1429 3725 
Q 1025 3213 1025 2328 
Q 1025 1447 1429 934 
Q 1834 422 2522 422 
Q 3209 422 3611 934 
Q 4013 1447 4013 2328 
Q 4013 3213 3611 3725 
Q 3209 4238 2522 4238 
z
M 2522 4750 
Q 3503 4750 4090 4092 
Q 4678 3434 4678 2328 
Q 4678 1225 4090 567 
Q 3503 -91 2522 -91 
Q 1538 -91 948 565 
Q 359 1222 359 2328 
Q 359 3434 948 4092 
Q 1538 4750 2522 4750 
z
" transform="scale(0.015625)"/>
      </defs>
      <use xlink:href="#DejaVuSans-44"/>
      <use xlink:href="#DejaVuSans-69" transform="translate(77.001953 0)"/>
      <use xlink:href="#DejaVuSans-43" transform="translate(104.785156 0)"/>
      <use xlink:href="#DejaVuSans-6f" transform="translate(174.609375 0)"/>
      <use xlink:href="#DejaVuSans-64" transform="translate(235.791016 0)"/>
      <use xlink:href="#DejaVuSans-65" transform="translate(299.267578 0)"/>
      <use xlink:href="#DejaVuSans-20" transform="translate(360.791016 0)"/>
      <use xlink:href="#DejaVuSans-28" transform="translate(392.578125 0)"/>
      <use xlink:href="#DejaVuSans-4f" transform="translate(431.591797 0)"/>
      <use xlink:href="#DejaVuSans-75" transform="translate(510.302734 0)"/>
      <use xlink:href="#DejaVuSans-72" transform="translate(573.681641 0)"/>
      <use xlink:href="#DejaVuSans-73" transform="translate(614.794922 0)"/>
      <use xlink:href="#DejaVuSans-29" transform="translate(666.894531 0)"/>
     </g>
    </g>
    <g id="line2d_21">
     <path d="M 62.358 61.313625 
L 74.358 61.313625 
L 86.358 61.313625 
" style="fill: none; stroke: #de8f05; stroke-width: 2.5; stroke-linecap: round"/>
    </g>
    <g id="text_19">
     <!-- PPO-GTrXL -->
     <g style="fill: #262626" transform="translate(95.958 65.513625) scale(0.12 -0.12)">
      <defs>
       <path id="DejaVuSans-50" d="M 1259 4147 
L 1259 2394 
L 2053 2394 
Q 2494 2394 2734 2622 
Q 2975 2850 2975 3272 
Q 2975 3691 2734 3919 
Q 2494 4147 2053 4147 
L 1259 4147 
z
M 628 4666 
L 2053 4666 
Q 2838 4666 3239 4311 
Q 3641 3956 3641 3272 
Q 3641 2581 3239 2228 
Q 2838 1875 2053 1875 
L 1259 1875 
L 1259 0 
L 628 0 
L 628 4666 
z
" transform="scale(0.015625)"/>
       <path id="DejaVuSans-2d" d="M 313 2009 
L 1997 2009 
L 1997 1497 
L 313 1497 
L 313 2009 
z
" transform="scale(0.015625)"/>
       <path id="DejaVuSans-47" d="M 3809 666 
L 3809 1919 
L 2778 1919 
L 2778 2438 
L 4434 2438 
L 4434 434 
Q 4069 175 3628 42 
Q 3188 -91 2688 -91 
Q 1594 -91 976 548 
Q 359 1188 359 2328 
Q 359 3472 976 4111 
Q 1594 4750 2688 4750 
Q 3144 4750 3555 4637 
Q 3966 4525 4313 4306 
L 4313 3634 
Q 3963 3931 3569 4081 
Q 3175 4231 2741 4231 
Q 1884 4231 1454 3753 
Q 1025 3275 1025 2328 
Q 1025 1384 1454 906 
Q 1884 428 2741 428 
Q 3075 428 3337 486 
Q 3600 544 3809 666 
z
" transform="scale(0.015625)"/>
       <path id="DejaVuSans-54" d="M -19 4666 
L 3928 4666 
L 3928 4134 
L 2272 4134 
L 2272 0 
L 1638 0 
L 1638 4134 
L -19 4134 
L -19 4666 
z
" transform="scale(0.015625)"/>
       <path id="DejaVuSans-58" d="M 403 4666 
L 1081 4666 
L 2241 2931 
L 3406 4666 
L 4084 4666 
L 2584 2425 
L 4184 0 
L 3506 0 
L 2194 1984 
L 872 0 
L 191 0 
L 1856 2491 
L 403 4666 
z
" transform="scale(0.015625)"/>
       <path id="DejaVuSans-4c" d="M 628 4666 
L 1259 4666 
L 1259 531 
L 3531 531 
L 3531 0 
L 628 0 
L 628 4666 
z
" transform="scale(0.015625)"/>
      </defs>
      <use xlink:href="#DejaVuSans-50"/>
      <use xlink:href="#DejaVuSans-50" transform="translate(60.302734 0)"/>
      <use xlink:href="#DejaVuSans-4f" transform="translate(120.605469 0)"/>
      <use xlink:href="#DejaVuSans-2d" transform="translate(202.066406 0)"/>
      <use xlink:href="#DejaVuSans-47" transform="translate(241.775391 0)"/>
      <use xlink:href="#DejaVuSans-54" transform="translate(315.640625 0)"/>
      <use xlink:href="#DejaVuSans-72" transform="translate(361.974609 0)"/>
      <use xlink:href="#DejaVuSans-58" transform="translate(403.087891 0)"/>
      <use xlink:href="#DejaVuSans-4c" transform="translate(471.59375 0)"/>
     </g>
    </g>
    <g id="line2d_22">
     <path d="M 62.358 78.927375 
L 74.358 78.927375 
L 86.358 78.927375 
" style="fill: none; stroke: #029e73; stroke-width: 2.5; stroke-linecap: round"/>
    </g>
    <g id="text_20">
     <!-- DR -->
     <g style="fill: #262626" transform="translate(95.958 83.127375) scale(0.12 -0.12)">
      <use xlink:href="#DejaVuSans-44"/>
      <use xlink:href="#DejaVuSans-52" transform="translate(77.001953 0)"/>
     </g>
    </g>
    <g id="line2d_23">
     <path d="M 62.358 96.541125 
L 74.358 96.541125 
L 86.358 96.541125 
" style="fill: none; stroke: #d55e00; stroke-width: 2.5; stroke-linecap: round"/>
    </g>
    <g id="text_21">
     <!-- PLR -->
     <g style="fill: #262626" transform="translate(95.958 100.741125) scale(0.12 -0.12)">
      <use xlink:href="#DejaVuSans-50"/>
      <use xlink:href="#DejaVuSans-4c" transform="translate(60.302734 0)"/>
      <use xlink:href="#DejaVuSans-52" transform="translate(116.015625 0)"/>
     </g>
    </g>
    <g id="line2d_24">
     <path d="M 62.358 114.154875 
L 74.358 114.154875 
L 86.358 114.154875 
" style="fill: none; stroke: #cc78bc; stroke-width: 2.5; stroke-linecap: round"/>
    </g>
    <g id="text_22">
     <!-- SFL -->
     <g style="fill: #262626" transform="translate(95.958 118.354875) scale(0.12 -0.12)">
      <defs>
       <path id="DejaVuSans-46" d="M 628 4666 
L 3309 4666 
L 3309 4134 
L 1259 4134 
L 1259 2759 
L 3109 2759 
L 3109 2228 
L 1259 2228 
L 1259 0 
L 628 0 
L 628 4666 
z
" transform="scale(0.015625)"/>
      </defs>
      <use xlink:href="#DejaVuSans-53"/>
      <use xlink:href="#DejaVuSans-46" transform="translate(63.476562 0)"/>
      <use xlink:href="#DejaVuSans-4c" transform="translate(120.996094 0)"/>
     </g>
    </g>
   </g>
  </g>
 </g>
 <defs>
  <clipPath id="pad4bfa704d">
   <rect x="51.558" y="10.368" width="658.074" height="367.356"/>
  </clipPath>
 </defs>
</svg>
